<?xml version="1.0" encoding="UTF-8" standalone="no" ?>
<!DOCTYPE svg PUBLIC "-//W3C//DTD SVG 1.1//EN" "http://www.w3.org/Graphics/SVG/1.1/DTD/svg11.dtd">
<svg xmlns="http://www.w3.org/2000/svg" xmlns:xlink="http://www.w3.org/1999/xlink" version="1.1" width="300" height="50" viewBox="0 0 300 50" xml:space="preserve">
<desc>Created with Fabric.js 4.6.0</desc>
<defs>
</defs>
<g transform="matrix(1 0 0 1 226.87 24.54)" id="Zu93aZRAooDq5tHvu8Dcl"  >
<path style="stroke: none; stroke-width: 1; stroke-dasharray: none; stroke-linecap: butt; stroke-dashoffset: 0; stroke-linejoin: miter; stroke-miterlimit: 4; fill: rgb(125,145,19); fill-rule: nonzero; opacity: 1;" vector-effect="non-scaling-stroke"  transform=" translate(0, 0)" d="M -47.1245 -2.3945 L -47.1245 2.9225000000000003 L -59.780499999999996 2.9225000000000003 L -59.780499999999996 15.996500000000001 L -66.3725 15.996500000000001 L -66.3725 -15.9955 L -45.542500000000004 -15.9955 L -45.542500000000004 -10.6565 L -59.7805 -10.6565 L -59.7805 -2.394499999999999 z M -23.7875 15.9965 L -29.785500000000003 4.285499999999999 L -35.0375 4.285499999999999 L -35.0375 15.9965 L -41.6295 15.9965 L -41.6295 -15.995500000000002 L -29.741500000000002 -15.995500000000002 C -25.96217 -15.995500000000002 -23.04717 -15.153170000000001 -20.996500000000005 -13.468500000000002 C -18.945830000000004 -11.783830000000002 -17.920500000000004 -9.403500000000001 -17.920500000000004 -6.327500000000002 L -17.920500000000004 -6.327500000000002 C -17.920500000000004 -4.1448300000000025 -18.392830000000004 -2.324830000000002 -19.337500000000006 -0.8675000000000024 C -20.282830000000004 0.5898299999999976 -21.714830000000006 1.7508299999999974 -23.633500000000005 2.6154999999999977 L -23.633500000000005 2.6154999999999977 L -16.712500000000006 15.688499999999998 L -16.712500000000006 15.996499999999997 z M -35.0375 -10.6565 L -35.0375 -1.054499999999999 L -29.719500000000004 -1.054499999999999 C -28.064830000000004 -1.054499999999999 -26.783170000000005 -1.4754999999999991 -25.874500000000005 -2.317499999999999 C -24.966500000000003 -3.160169999999999 -24.512500000000003 -4.321169999999999 -24.512500000000003 -5.8004999999999995 L -24.512500000000003 -5.8004999999999995 C -24.512500000000003 -7.30917 -24.940830000000002 -8.4955 -25.797500000000003 -9.3595 C -26.654830000000004 -10.22417 -27.969500000000004 -10.656500000000001 -29.741500000000002 -10.656500000000001 L -29.741500000000002 -10.656500000000001 z M 6.4275 -3.0315 L 6.4275 2.1315000000000004 L -6.2295 2.1315000000000004 L -6.2295 10.701500000000001 L 8.6245 10.701500000000001 L 8.6245 15.996500000000001 L -12.820500000000001 15.996500000000001 L -12.820500000000001 -15.9955 L 8.580499999999999 -15.9955 L 8.580499999999999 -10.6565 L -6.229500000000002 -10.6565 L -6.229500000000002 -3.0314999999999994 z M 29.1705 7.6025 L 29.1705 7.6025 C 29.1705 6.35783 28.73117 5.40217 27.8525 4.7355 C 26.97383 4.06883 25.39183 3.36583 23.106499999999997 2.6265 C 20.821169999999995 1.8865 19.012169999999998 1.1575 17.679499999999997 0.4395000000000002 L 17.679499999999997 0.4395000000000002 C 14.046829999999996 -1.5231699999999997 12.230499999999997 -4.1671700000000005 12.230499999999997 -7.4925 L 12.230499999999997 -7.4925 C 12.230499999999997 -9.221169999999999 12.717499999999998 -10.76283 13.691499999999998 -12.1175 C 14.665499999999998 -13.47217 16.0645 -14.5305 17.888499999999997 -15.2925 C 19.711829999999996 -16.0545 21.758829999999996 -16.4355 24.0295 -16.4355 L 24.0295 -16.4355 C 26.31483 -16.4355 28.35083 -16.0215 30.1375 -15.1935 C 31.92483 -14.36617 33.31283 -13.198170000000001 34.3015 -11.6895 C 35.290169999999996 -10.18017 35.784499999999994 -8.466170000000002 35.784499999999994 -6.5475 L 35.784499999999994 -6.5475 L 29.192499999999995 -6.5475 C 29.192499999999995 -8.012170000000001 28.731169999999995 -9.15117 27.808499999999995 -9.964500000000001 C 26.885829999999995 -10.777170000000002 25.589499999999994 -11.1835 23.919499999999996 -11.1835 L 23.919499999999996 -11.1835 C 22.308169999999997 -11.1835 21.055829999999997 -10.842830000000001 20.162499999999994 -10.1615 C 19.268499999999996 -9.480830000000001 18.821499999999993 -8.58383 18.821499999999993 -7.4705 L 18.821499999999993 -7.4705 C 18.821499999999993 -6.4305 19.345169999999992 -5.55883 20.392499999999995 -4.8555 C 21.439829999999994 -4.15217 22.981829999999995 -3.49317 25.018499999999996 -2.8785 L 25.018499999999996 -2.8785 C 28.768499999999996 -1.7505 31.500169999999997 -0.3514999999999997 33.213499999999996 1.3185000000000002 C 34.927499999999995 2.9885 35.784499999999994 5.0685 35.784499999999994 7.5585 L 35.784499999999994 7.5585 C 35.784499999999994 10.32717 34.73716999999999 12.498830000000002 32.64249999999999 14.0735 C 30.54782999999999 15.648169999999999 27.72816999999999 16.435499999999998 24.18349999999999 16.435499999999998 L 24.18349999999999 16.435499999999998 C 21.72216999999999 16.435499999999998 19.48082999999999 15.985169999999998 17.45949999999999 15.084499999999998 C 15.438169999999992 14.183829999999999 13.89649999999999 12.949829999999999 12.834499999999991 11.382499999999999 C 11.772499999999992 9.815169999999998 11.241499999999991 7.998829999999998 11.241499999999991 5.933499999999999 L 11.241499999999991 5.933499999999999 L 17.855499999999992 5.933499999999999 C 17.855499999999992 9.463499999999998 19.964829999999992 11.228499999999999 24.18349999999999 11.228499999999999 L 24.18349999999999 11.228499999999999 C 25.75082999999999 11.228499999999999 26.973829999999992 10.90983 27.852499999999992 10.272499999999999 C 28.73116999999999 9.635169999999999 29.170499999999993 8.745169999999998 29.170499999999993 7.602499999999999 z M 66.3725 -15.9955 L 66.3725 15.996500000000001 L 59.7805 15.996500000000001 L 59.7805 2.2855000000000008 L 46.926500000000004 2.2855000000000008 L 46.926500000000004 15.996500000000001 L 40.3355 15.996500000000001 L 40.3355 -15.9955 L 46.926500000000004 -15.9955 L 46.926500000000004 -3.0314999999999994 L 59.7805 -3.0314999999999994 L 59.7805 -15.9955 z" stroke-linecap="round" />
</g>
<g transform="matrix(1 0 0 1 79.49 24.49)" id="n27ISAudjoxEAG2Xs-n2S"  >
<path style="stroke: none; stroke-width: 1; stroke-dasharray: none; stroke-linecap: butt; stroke-dashoffset: 0; stroke-linejoin: miter; stroke-miterlimit: 4; fill: rgb(0,0,0); fill-rule: nonzero; opacity: 1;" vector-effect="non-scaling-stroke"  transform=" translate(-79.49, -24.49)" d="M 25.392 8.272 L 32.006 8.272 L 32.006 29.344 Q 32.006 34.595 28.721 37.649 Q 25.436 40.703 19.745 40.703 L 19.745 40.703 Q 14.142 40.703 10.846 37.737 Q 7.551 34.771 7.485 29.585 L 7.485 29.585 L 7.485 8.272 L 14.076 8.272 L 14.076 29.388 Q 14.076 32.53 15.582 33.969 Q 17.087 35.408 19.745 35.408 L 19.745 35.408 Q 25.304 35.408 25.392 29.563 L 25.392 29.563 L 25.392 8.272 Z M 55.343 40.264 L 49.345 28.553 L 44.093 28.553 L 44.093 40.264 L 37.501 40.264 L 37.501 8.272 L 49.389 8.272 Q 55.058 8.272 58.134 10.799 Q 61.21 13.326 61.21 17.94 L 61.21 17.94 Q 61.21 21.214 59.793 23.4 Q 58.375 25.586 55.497 26.883 L 55.497 26.883 L 62.418 39.956 L 62.418 40.264 L 55.343 40.264 Z M 44.093 13.611 L 44.093 23.213 L 49.411 23.213 Q 51.893 23.213 53.256 21.95 Q 54.618 20.686 54.618 18.467 L 54.618 18.467 Q 54.618 16.204 53.333 14.908 Q 52.047 13.611 49.389 13.611 L 49.389 13.611 L 44.093 13.611 Z M 78.746 40.264 L 66.31 40.264 L 66.31 8.272 L 77.516 8.272 Q 83.338 8.272 86.349 10.502 Q 89.359 12.732 89.359 17.039 L 89.359 17.039 Q 89.359 19.39 88.15 21.181 Q 86.942 22.972 84.789 23.806 L 84.789 23.806 Q 87.25 24.422 88.667 26.289 Q 90.084 28.157 90.084 30.86 L 90.084 30.86 Q 90.084 35.474 87.14 37.847 Q 84.195 40.22 78.746 40.264 L 78.746 40.264 Z M 78.944 26.333 L 72.901 26.333 L 72.901 34.969 L 78.548 34.969 Q 80.877 34.969 82.185 33.859 Q 83.492 32.749 83.492 30.794 L 83.492 30.794 Q 83.492 26.399 78.944 26.333 L 78.944 26.333 Z M 72.901 13.611 L 72.901 21.675 L 77.779 21.675 Q 82.767 21.587 82.767 17.698 L 82.767 17.698 Q 82.767 15.523 81.504 14.567 Q 80.24 13.611 77.516 13.611 L 77.516 13.611 L 72.901 13.611 Z M 115.399 40.264 L 113.179 33.672 L 101.622 33.672 L 99.425 40.264 L 92.415 40.264 L 104.324 8.272 L 110.433 8.272 L 122.408 40.264 L 115.399 40.264 Z M 107.379 16.358 L 103.402 28.333 L 111.4 28.333 L 107.379 16.358 Z M 151.502 8.272 L 151.502 40.264 L 144.91 40.264 L 132.078 19.214 L 132.078 40.264 L 125.486 40.264 L 125.486 8.272 L 132.078 8.272 L 144.932 29.366 L 144.932 8.272 L 151.502 8.272 Z" stroke-linecap="round" />
</g>
</svg>